<?xml version="1.0" encoding="utf-8"?>
<!-- Generator: Adobe Illustrator 19.0.0, SVG Export Plug-In . SVG Version: 6.00 Build 0)  -->
<svg version="1.1" id="Layer_1" xmlns="http://www.w3.org/2000/svg" xmlns:xlink="http://www.w3.org/1999/xlink" x="0px" y="0px"
	 viewBox="-283 381 44 32" style="enable-background:new -283 381 44 32;" xml:space="preserve">
<style type="text/css">
	.st0{fill:#6AADA4;}
</style>
<path class="st0" d="M-239.2,411.5L-239.2,411.5l-3.9-5.9c0.1-0.2,0.1-0.4,0.1-0.6v-22c0-1.1-0.9-2-2-2h-32c-1.1,0-2,0.9-2,2v22
	c0,0.2,0,0.4,0.1,0.6l-3.9,5.9l0,0c-0.1,0.2-0.2,0.3-0.2,0.5c0,0.6,0.4,1,1,1h42c0.6,0,1-0.4,1-1
	C-239,411.8-239.1,411.6-239.2,411.5 M-277,383h32v22h-32V383z M-280.1,411l2.7-4.1c0.1,0,0.3,0.1,0.4,0.1h32c0.1,0,0.3,0,0.4-0.1
	l2.7,4.1H-280.1z"/>
</svg>
