<?xml version="1.0" encoding="utf-8"?>
<!-- Generator: Adobe Illustrator 19.0.0, SVG Export Plug-In . SVG Version: 6.00 Build 0)  -->
<svg version="1.1" id="icons" xmlns="http://www.w3.org/2000/svg" xmlns:xlink="http://www.w3.org/1999/xlink" x="0px" y="0px"
	 viewBox="0 0 68.3 70.1" style="enable-background:new 0 0 68.3 70.1;" xml:space="preserve">
<style type="text/css">
	.st0{fill:#6AADA4;}
</style>
<g>
	<path class="st0" d="M67.6,41.3c-0.7-1.2-1.9-2.1-3.3-2.4L39,32.4c-0.4-0.1-0.9-0.2-1.3-0.2c-0.3,0-0.6,0-0.9,0.1l-18.1,3
		c-2.9,0.5-4.9,3.2-4.4,6.1c0.4,2.6,2.6,4.5,5.3,4.5c0.3,0,0.6,0,0.9-0.1l0.7-0.1c0.1,0.1,0.2,0.2,0.3,0.3L34,54.4l-0.6,6.8h-8.8
		c-4.1,0-6,4.5-6.4,7.1c-0.1,0.4,0,0.9,0.3,1.2c0.3,0.3,0.7,0.5,1.1,0.5H55c0.4,0,0.9-0.2,1.1-0.5c0.3-0.3,0.4-0.8,0.3-1.2
		c-0.5-2.6-2.3-7.1-6.4-7.1h-1.7l-0.7-8.7c-0.1-0.8-0.7-1.4-1.5-1.4h-2.3l-7.5-8l1.1-0.2l24.2,6.2c0.4,0.1,0.9,0.2,1.3,0.2
		c2.4,0,4.6-1.7,5.2-4C68.5,43.9,68.3,42.5,67.6,41.3z M53,67.1H21.7c0.5-1.2,1.2-2.5,2.5-2.8h15.5c0.6,0,1-0.4,1-1s-0.4-1-1-1h-3.3
		l0.7-8h7.7l0.7,8.5c0.1,0.8,0.7,1.4,1.5,1.4H50C51.5,64.2,52.5,65.8,53,67.1z M40.8,52.3h-4.5L25.4,45l7.3-1.2L40.8,52.3z
		 M65.2,44.6C65,45.6,64,46.3,63,46.3c-0.2,0-0.4,0-0.6-0.1l-24.8-6.3l-17.6,3c-0.1,0-0.3,0-0.4,0c-1.1,0-2.1-0.8-2.3-2
		c-0.2-1.3,0.6-2.5,1.9-2.7l18.1-3c0.1,0,0.3,0,0.4,0c0.2,0,0.4,0,0.6,0.1l25.3,6.5C64.8,42,65.6,43.3,65.2,44.6z"/>
	<path class="st0" d="M18.1,30.6c0.5-1.3,0.4-2.8-0.2-4.1l-6.9-14.7c-0.4-0.8-1-1.5-1.6-2c0.8-0.9,1.2-2.1,1.2-3.4l0-1.1
		C10.7,2.4,8.3,0,5.3,0S0,2.4,0,5.3l0,1.1c0,1.7,0.8,3.2,2.1,4.2c-0.4,0.4-0.7,0.9-0.9,1.5c-0.5,1.3-0.4,2.8,0.1,4.1L8.3,31
		c0.9,1.9,2.8,3.1,4.8,3.1c0.8,0,1.5-0.2,2.2-0.5C16.6,33,17.6,31.9,18.1,30.6z M5.3,3c1.3,0,2.3,1,2.3,2.3l0,1.1
		c0,1.3-1,2.3-2.3,2.3C4.1,8.8,3,7.7,3,6.4l0-1.1C3,4,4,3,5.3,3z M14.1,30.8c-0.3,0.1-0.6,0.2-1,0.2c-0.9,0-1.7-0.5-2.1-1.4L4.1,15
		c-0.5-1.2,0-2.6,1.1-3.1c0.3-0.1,0.6-0.2,1-0.2c0.9,0,1.7,0.5,2.1,1.4l6.8,14.7C15.8,28.9,15.3,30.3,14.1,30.8z"/>
</g>
</svg>
