<?xml version="1.0" encoding="utf-8"?>
<!-- Generator: Adobe Illustrator 19.0.0, SVG Export Plug-In . SVG Version: 6.00 Build 0)  -->
<svg version="1.1" id="Layer_1" xmlns="http://www.w3.org/2000/svg" xmlns:xlink="http://www.w3.org/1999/xlink" x="0px" y="0px"
	 viewBox="-283 377 44 40" style="enable-background:new -283 377 44 40;" xml:space="preserve">
<style type="text/css">
	.st0{fill:#6AADA4;}
</style>
<path class="st0" d="M-243,391v-11c0-1.7-1.3-3-3-3s-3,1.3-3,3v0.8l-29.1,9.4c-0.3-0.1-0.6-0.2-0.9-0.2h-2c-1.1,0-2,0.9-2,2v10
	c0,1.1,0.9,2,2,2h2c0.3,0,0.6-0.1,0.9-0.2l4.7,1.5l-0.4,1.2c-0.7,2.1,0.5,4.4,2.6,5l10.5,3.3c2.1,0.7,4.4-0.5,5-2.6l0.4-1.1l6.3,2
	v0.8c0,1.7,1.3,3,3,3s3-1.3,3-3v-11c2.2,0,4-1.8,4-4v-4C-239,392.8-240.8,391-243,391 M-279,402h-2v-10h2V402z M-257.6,411.7
	c-0.3,1.1-1.5,1.6-2.5,1.3l-10.5-3.3c-1.1-0.3-1.6-1.5-1.3-2.5l0.4-1.2l14.3,4.6L-257.6,411.7z M-249,411.1l-28-9.1c0,0,0,0,0,0v-10
	c0,0,0,0,0,0l28-9.1V411.1z M-245,414c0,0.6-0.4,1-1,1s-1-0.4-1-1v-34c0-0.6,0.4-1,1-1s1,0.4,1,1V414z M-241,399c0,1.1-0.9,2-2,2v-8
	c1.1,0,2,0.9,2,2V399z"/>
</svg>
