<?xml version="1.0" encoding="utf-8"?>
<!-- Generator: Adobe Illustrator 19.0.0, SVG Export Plug-In . SVG Version: 6.00 Build 0)  -->
<svg version="1.1" id="Слой_2" xmlns="http://www.w3.org/2000/svg" xmlns:xlink="http://www.w3.org/1999/xlink" x="0px" y="0px"
	 viewBox="-275 362.2 60.1 69.8" style="enable-background:new -275 362.2 60.1 69.8;" xml:space="preserve">
<style type="text/css">
	.st0{fill:none;stroke:#6AADA4;stroke-width:2.4;stroke-linecap:round;stroke-linejoin:round;stroke-miterlimit:10;}
</style>
<g>
	<path class="st0" d="M-244.9,430.8c12.3,0,23.1-6.7,28.9-16.7c-7.5-11.5-18.9-11.9-18.9-11.9c-3.6,3.6-10,9-10,9c0,0-6.4-5.3-10-9
		c0,0-11.4,0.4-18.9,11.9C-268,424.1-257.3,430.8-244.9,430.8z"/>
	<path class="st0" d="M-254.9,402.2c0,0-10.4,7.1-15.1,17"/>
	<path class="st0" d="M-234.9,402.2c0,0,10.4,7.1,15.1,17"/>
	<line class="st0" x1="-244.9" y1="416.5" x2="-244.9" y2="425.6"/>
	<path class="st0" d="M-259.2,366c0,3.9,0,6.9,0,10.8v8.3c0,7.9,6.4,14.2,14.2,14.2c7.9,0,14.2-6.4,14.2-14.2v-8.3
		c0-3.9,0-6.9,0-10.8C-239.9,362.6-250,362.6-259.2,366z"/>
	<path class="st0" d="M-237,396.7v-10.6c-2.1-1.1-4.9-1.6-8-1.6c-3.1,0-5.9,0.5-8,1.6v10.6"/>
	<path class="st0" d="M-241.1,372.9c-1.3-0.1-2.6-0.1-3.9-0.1c-5.2,0-9.9,0.7-13.4,1.9"/>
	<path class="st0" d="M-231.6,374.6c-1.2-0.4-2.6-0.8-4.2-1.1"/>
</g>
</svg>
