<?xml version="1.0" encoding="utf-8"?>
<!-- Generator: Adobe Illustrator 19.0.0, SVG Export Plug-In . SVG Version: 6.00 Build 0)  -->
<svg version="1.1" id="Layer_1" xmlns="http://www.w3.org/2000/svg" xmlns:xlink="http://www.w3.org/1999/xlink" x="0px" y="0px"
	 viewBox="-283 381 44 32" style="enable-background:new -283 381 44 32;" xml:space="preserve">
<style type="text/css">
	.st0{fill:#6AADA4;}
</style>
<path class="st0" d="M-239,390c0-0.4-0.2-0.7-0.6-0.9l0,0l0,0c0,0,0,0,0,0l-20.9-8l0,0c-0.1-0.1-0.3-0.1-0.4-0.1s-0.3,0-0.4,0.1l0,0
	l-20.9,8c0,0,0,0,0,0l0,0l0,0c-0.3,0.2-0.6,0.5-0.6,0.9s0.2,0.7,0.6,0.9l0,0l0,0c0,0,0,0,0,0l1.9,0.7l-1.3,9.5
	c-0.7,0.3-1.2,1-1.2,1.8c0,1.1,0.9,2,2,2c1.1,0,2-0.9,2-2c0-0.6-0.3-1.2-0.8-1.6l1.2-9.1l3.4,1.3l-1.8,14.2l0,0c0,0,0,0.1,0,0.1
	c0,0.6,0.4,1,1,1c0.1,0,0.1,0,0.2,0l0,0l7.5-1.9l6.7,5.7l0,0c0.2,0.1,0.4,0.2,0.6,0.2c0.2,0,0.4-0.1,0.5-0.2l0,0l7.7-5.7l7.6,1.9
	l0,0c0.1,0,0.1,0,0.2,0c0.6,0,1-0.4,1-1c0-0.1,0-0.1,0-0.2l0,0l-2.7-14.2l7.1-2.7c0,0,0,0,0,0l0,0l0,0
	C-239.2,390.7-239,390.4-239,390 M-246.3,406.7l-6.5-1.6l0,0c-0.1,0-0.1,0-0.2,0c-0.2,0-0.4,0.1-0.5,0.2l0,0l-7.4,5.6l-6.4-5.5l0,0
	c-0.2-0.1-0.4-0.2-0.6-0.2c-0.1,0-0.1,0-0.2,0l0,0l-6.6,1.7l1.5-12.3l11.9,4.5l0,0c0.1,0.1,0.3,0.1,0.4,0.1s0.3,0,0.4-0.1l0,0
	l12-4.6L-246.3,406.7z M-261,396.9l-18.2-6.9l18.2-6.9l18.2,6.9L-261,396.9z"/>
</svg>
