<?xml version="1.0" encoding="utf-8"?>
<!-- Generator: Adobe Illustrator 19.0.0, SVG Export Plug-In . SVG Version: 6.00 Build 0)  -->
<svg version="1.1" id="Layer_1" xmlns="http://www.w3.org/2000/svg" xmlns:xlink="http://www.w3.org/1999/xlink" x="0px" y="0px"
	 viewBox="-283 375 44 44" style="enable-background:new -283 375 44 44;" xml:space="preserve">
<style type="text/css">
	.st0{fill:#6AADA4;}
</style>
<path class="st0" d="M-265,387c0.6,0,1-0.4,1-1v-10c0-0.6-0.4-1-1-1s-1,0.4-1,1v10C-266,386.6-265.6,387-265,387 M-253,389
	c0.6,0,1-0.4,1-1v-10c0-0.6-0.4-1-1-1s-1,0.4-1,1v10C-254,388.6-253.6,389-253,389 M-259,387c0.6,0,1-0.4,1-1v-6c0-0.6-0.4-1-1-1
	s-1,0.4-1,1v6C-260,386.6-259.6,387-259,387 M-245,396h-2v-3c0-1.1-0.9-2-2-2h-32c-1.1,0-2,0.9-2,2v12c0,5.1,2.7,9.6,6.8,12h-5.8
	c-0.6,0-1,0.4-1,1s0.4,1,1,1h34c0.6,0,1-0.4,1-1s-0.4-1-1-1h-5.8c3.2-2,5.6-5.2,6.5-9h2.3c3.3,0,6-2.7,6-6
	C-239,398.7-241.7,396-245,396 M-261,417h-8c-3.5,0-6.7-1.6-8.9-4h25.9C-254.3,415.4-257.5,417-261,417 M-249,405
	c0,2.2-0.6,4.2-1.6,6h-28.8c-1-1.8-1.6-3.8-1.6-6v-12h32V405z M-245,406h-2.1c0-0.3,0.1-0.7,0.1-1v-7h2c2.2,0,4,1.8,4,4
	S-242.8,406-245,406 M-277,387c0.6,0,1-0.4,1-1v-6c0-0.6-0.4-1-1-1s-1,0.4-1,1v6C-278,386.6-277.6,387-277,387 M-271,389
	c0.6,0,1-0.4,1-1v-10c0-0.6-0.4-1-1-1s-1,0.4-1,1v10C-272,388.6-271.6,389-271,389"/>
</svg>
