<?xml version="1.0" encoding="utf-8"?>
<!-- Generator: Adobe Illustrator 19.0.0, SVG Export Plug-In . SVG Version: 6.00 Build 0)  -->
<svg version="1.1" id="Layer_1" xmlns="http://www.w3.org/2000/svg" xmlns:xlink="http://www.w3.org/1999/xlink" x="0px" y="0px"
	 viewBox="0 0 583.7 107.9" style="enable-background:new 0 0 583.7 107.9;" xml:space="preserve">
<style type="text/css">
	.st0{fill:#FFFFFF;}
</style>
<path class="st0" d="M118.9,64.3l21.4-51.1h4.1l21.4,51.1h-5.4l-6.6-16l-11.4-29.2l-18.1,45.2H118.9z M142.3,19.1L142.3,19.1
	l10.2,25.3L142.3,19.1z M244.4,13.2l18.3,44.9l18.1-44.9h5.3l-21.3,51.1h-4.4l-21.3-51.1H244.4z M294.9,64.3l21.4-51.1h4.1
	l21.4,51.1h-5.4l-6.6-16l-11.4-29.2l-18.1,45.2H294.9z M318.4,19.1L318.4,19.1l10.2,25.3L318.4,19.1z M365,22.6v41.8h-5V13.2h3.9
	l33.8,42.6V13.3h5v51h-4.3L365,22.6z M423.1,38.4c0-3.1,0.5-6.1,1.6-9.2c1.1-3,2.7-5.8,4.7-8.2c2.1-2.4,4.6-4.4,7.6-5.9
	c3-1.5,6.5-2.3,10.3-2.3c4.6,0,8.4,1,11.7,3.1c3.2,2.1,5.6,4.8,7.2,8.1l-4,2.4c-0.8-1.7-1.8-3.1-3-4.2c-1.2-1.2-2.4-2.1-3.7-2.8
	c-1.3-0.7-2.7-1.2-4.2-1.5c-1.4-0.3-2.9-0.5-4.2-0.5c-3.1,0-5.8,0.6-8.1,1.9c-2.4,1.2-4.3,2.9-5.9,4.9c-1.6,2-2.8,4.3-3.6,6.8
	c-0.8,2.5-1.2,5.1-1.2,7.7c0,2.8,0.5,5.5,1.5,8.1c1,2.6,2.3,4.9,4,6.9c1.7,2,3.7,3.6,6,4.8c2.3,1.2,4.9,1.8,7.6,1.8
	c1.4,0,2.9-0.2,4.4-0.5c1.5-0.4,3-0.9,4.4-1.7c1.4-0.8,2.7-1.8,3.9-3c1.2-1.2,2.2-2.6,3-4.3l4.2,2.2c-0.8,1.9-2,3.6-3.5,5.1
	c-1.5,1.5-3.1,2.7-5,3.7s-3.8,1.8-5.8,2.3c-2,0.5-4,0.8-6,0.8c-3.5,0-6.7-0.8-9.6-2.3c-2.9-1.5-5.4-3.5-7.6-6
	c-2.1-2.5-3.8-5.3-4.9-8.4C423.7,44.9,423.1,41.7,423.1,38.4z M521.2,59.9v4.5h-34.3V13.2h33.7v4.5h-28.7v18.4h25.1v4.2h-25.1v19.5
	H521.2z M224.2,28.8c-1-3.1-2.5-5.8-4.6-8.1c-2-2.3-4.6-4.2-7.7-5.6c-3.1-1.3-6.6-2.1-10.7-2.1h-17.7v5h5.3l0,0h12.4
	c3.1,0,5.9,0.3,8.3,1.4c2.4,1,4.4,2.4,6.1,4.3c1.7,1.9,2.9,4.1,3.8,6.6c0.9,2.6,1.3,5.4,1.3,8.4c0,3-0.4,5.8-1.3,8.4
	c-0.8,2.6-2.1,4.8-3.7,6.7s-3.7,3.5-6.1,4.5c-2.4,1.1-5.2,1.7-8.4,1.7h-12.7V25h-5v39h17.7c3.7,0,7.1-0.5,10.2-1.7
	c3-1.2,5.6-2.9,7.7-5.1c2.1-2.2,3.7-4.9,4.9-8c1.2-3.1,1.7-6.6,1.7-10.5C225.7,35.2,225.2,31.9,224.2,28.8z M582.2,28.8
	c-1-3.1-2.5-5.8-4.6-8.1c-2-2.3-4.6-4.2-7.7-5.6c-3.1-1.3-6.6-2.1-10.7-2.1h-17.7v5h5.3l0,0h12.4c3.1,0,5.9,0.3,8.3,1.4
	c2.4,1,4.4,2.4,6.1,4.3c1.7,1.9,2.9,4.1,3.8,6.6c0.9,2.6,1.3,5.4,1.3,8.4c0,3-0.4,5.8-1.3,8.4c-0.8,2.6-2.1,4.8-3.7,6.7
	c-1.6,1.9-3.7,3.5-6.1,4.5c-2.4,1.1-5.2,1.7-8.4,1.7h-12.7V25h-5v39h17.7c3.7,0,7.1-0.5,10.2-1.7c3-1.2,5.6-2.9,7.7-5.1
	c2.1-2.2,3.7-4.9,4.9-8c1.2-3.1,1.7-6.6,1.7-10.5C583.7,35.2,583.2,31.9,582.2,28.8z"/>
<g>
	<path class="st0" d="M133.4,95.5c0,1.1-0.2,2.2-0.6,3.1c-0.4,0.9-0.9,1.8-1.6,2.4c-0.7,0.7-1.5,1.2-2.4,1.6c-0.9,0.4-2,0.6-3.1,0.6
		c-1.1,0-2.2-0.2-3.1-0.6c-0.9-0.4-1.7-0.9-2.4-1.6c-0.7-0.7-1.2-1.5-1.6-2.4s-0.6-2-0.6-3.1c0-1.1,0.2-2.2,0.6-3.1
		c0.4-0.9,0.9-1.8,1.6-2.4c0.7-0.7,1.5-1.2,2.4-1.6c0.9-0.4,2-0.6,3.1-0.6c1.1,0,2.2,0.2,3.1,0.6c0.9,0.4,1.8,0.9,2.4,1.6
		c0.7,0.7,1.2,1.5,1.6,2.4C133.3,93.3,133.4,94.4,133.4,95.5z M131.3,95.5c0-0.9-0.1-1.8-0.4-2.5c-0.3-0.7-0.6-1.4-1.1-1.9
		c-0.5-0.5-1.1-0.9-1.7-1.2c-0.7-0.3-1.4-0.4-2.3-0.4c-0.8,0-1.6,0.1-2.3,0.4c-0.7,0.3-1.3,0.7-1.7,1.2c-0.5,0.5-0.9,1.1-1.1,1.9
		c-0.3,0.7-0.4,1.6-0.4,2.5c0,0.9,0.1,1.8,0.4,2.5c0.3,0.7,0.6,1.4,1.1,1.9c0.5,0.5,1.1,0.9,1.7,1.2c0.7,0.3,1.4,0.4,2.3,0.4
		c0.8,0,1.6-0.1,2.3-0.4c0.7-0.3,1.3-0.7,1.7-1.2c0.5-0.5,0.8-1.1,1.1-1.9C131.1,97.2,131.3,96.4,131.3,95.5z"/>
	<path class="st0" d="M143,96.7v6.3h-2.1V88h4.4c1,0,1.8,0.1,2.6,0.3c0.7,0.2,1.3,0.5,1.8,0.8c0.5,0.4,0.8,0.8,1,1.3
		c0.2,0.5,0.3,1.1,0.3,1.7c0,0.5-0.1,1-0.3,1.5c-0.2,0.5-0.4,0.9-0.8,1.2c-0.3,0.4-0.7,0.7-1.2,0.9c-0.5,0.3-1,0.5-1.6,0.6
		c0.3,0.1,0.5,0.4,0.7,0.6l4.5,6h-1.9c-0.4,0-0.7-0.1-0.8-0.4l-4-5.4c-0.1-0.2-0.3-0.3-0.4-0.4c-0.1-0.1-0.4-0.1-0.7-0.1H143z
		 M143,95.2h2.2c0.6,0,1.2-0.1,1.6-0.2c0.5-0.1,0.9-0.3,1.2-0.6c0.3-0.3,0.6-0.6,0.7-0.9c0.2-0.4,0.2-0.8,0.2-1.2
		c0-0.9-0.3-1.6-0.9-2c-0.6-0.5-1.5-0.7-2.7-0.7H143V95.2z"/>
	<path class="st0" d="M171.8,103h-1.6c-0.2,0-0.3,0-0.5-0.1c-0.1-0.1-0.2-0.2-0.3-0.3l-1.5-3.6h-7l-1.5,3.6
		c-0.1,0.1-0.1,0.2-0.3,0.3c-0.1,0.1-0.3,0.1-0.5,0.1h-1.6l6.2-15h2.1L171.8,103z M161.6,97.4h5.8l-2.4-6.1
		c-0.2-0.4-0.3-0.9-0.5-1.4c-0.1,0.3-0.2,0.6-0.2,0.8c-0.1,0.2-0.2,0.5-0.2,0.6L161.6,97.4z"/>
	<path class="st0" d="M180.2,101.3h6.7v1.7h-8.8V88h2.1V101.3z"/>
	<path class="st0" d="M207.4,87.8c0.6,0,1.1,0.1,1.6,0.3c0.5,0.2,0.9,0.4,1.2,0.7c0.3,0.3,0.6,0.6,0.8,1c0.2,0.4,0.3,0.8,0.3,1.2
		l-1.2,0.2c0,0-0.1,0-0.1,0c-0.1,0-0.2,0-0.3-0.1c-0.1,0-0.1-0.1-0.2-0.3c-0.1-0.2-0.1-0.4-0.2-0.6c-0.1-0.2-0.3-0.4-0.4-0.5
		c-0.2-0.2-0.4-0.3-0.6-0.4c-0.2-0.1-0.5-0.2-0.9-0.2c-0.4,0-0.7,0.1-1,0.2c-0.3,0.1-0.5,0.3-0.7,0.5c-0.2,0.2-0.4,0.4-0.5,0.7
		c-0.1,0.3-0.2,0.6-0.2,0.9c0,0.2,0,0.5,0.1,0.7c0.1,0.2,0.2,0.5,0.3,0.7c0.1,0.2,0.3,0.5,0.5,0.7c0.2,0.2,0.4,0.5,0.7,0.8l4.5,4.4
		c0.3-0.5,0.5-1,0.7-1.5c0.2-0.5,0.3-1,0.3-1.5c0-0.1,0.1-0.2,0.1-0.3c0.1-0.1,0.2-0.1,0.3-0.1h1.2c0,0.8-0.1,1.6-0.4,2.4
		c-0.3,0.8-0.6,1.5-1.1,2.2l3.3,3.2h-1.9c-0.2,0-0.4,0-0.5-0.1c-0.1,0-0.3-0.2-0.4-0.3l-1.6-1.5c-0.7,0.6-1.5,1.1-2.4,1.5
		c-0.9,0.4-1.9,0.6-2.9,0.6c-0.6,0-1.1-0.1-1.7-0.3c-0.6-0.2-1.1-0.5-1.5-0.8c-0.4-0.4-0.8-0.8-1.1-1.3c-0.3-0.5-0.4-1.1-0.4-1.8
		c0-0.5,0.1-1,0.3-1.4c0.2-0.4,0.4-0.8,0.7-1.2s0.7-0.7,1.1-1c0.4-0.3,0.9-0.5,1.4-0.8c-0.4-0.5-0.8-1.1-1-1.6
		c-0.2-0.5-0.3-1-0.3-1.6c0-0.5,0.1-1,0.3-1.4c0.2-0.4,0.5-0.8,0.8-1.2c0.4-0.3,0.8-0.6,1.3-0.8C206.2,87.9,206.7,87.8,207.4,87.8z
		 M203.1,98.8c0,0.5,0.1,0.9,0.3,1.2s0.4,0.6,0.7,0.9c0.3,0.2,0.6,0.4,1,0.5s0.7,0.2,1.1,0.2c0.8,0,1.5-0.1,2.2-0.4
		c0.6-0.3,1.2-0.7,1.7-1.1l-4.6-4.5c-0.8,0.4-1.3,0.9-1.7,1.4C203.3,97.6,203.1,98.2,203.1,98.8z"/>
	<path class="st0" d="M238.2,98.1c0.1,0.2,0.1,0.4,0.2,0.6c0.1-0.2,0.1-0.4,0.2-0.6c0.1-0.2,0.2-0.4,0.3-0.5l5.3-9.3
		c0.1-0.2,0.2-0.3,0.3-0.3c0.1,0,0.2-0.1,0.4-0.1h1.6v15h-1.8V91.9c0-0.1,0-0.3,0-0.5c0-0.2,0-0.3,0-0.5l-5.3,9.4
		c-0.2,0.3-0.4,0.5-0.8,0.5h-0.3c-0.3,0-0.6-0.2-0.8-0.5l-5.4-9.4c0,0.2,0,0.4,0,0.5c0,0.2,0,0.3,0,0.5V103h-1.8V88h1.6
		c0.2,0,0.3,0,0.4,0.1c0.1,0,0.2,0.1,0.3,0.3l5.4,9.3C238,97.7,238.1,97.9,238.2,98.1z"/>
	<path class="st0" d="M267.4,103h-1.6c-0.2,0-0.3,0-0.5-0.1c-0.1-0.1-0.2-0.2-0.3-0.3l-1.5-3.6h-7l-1.5,3.6
		c-0.1,0.1-0.1,0.2-0.3,0.3c-0.1,0.1-0.3,0.1-0.5,0.1h-1.6l6.2-15h2.1L267.4,103z M257.2,97.4h5.8l-2.4-6.1
		c-0.2-0.4-0.3-0.9-0.5-1.4c-0.1,0.3-0.2,0.6-0.2,0.8c-0.1,0.2-0.2,0.5-0.2,0.6L257.2,97.4z"/>
	<path class="st0" d="M277.3,95.3l-5.1-7.3h2.1c0.2,0,0.3,0,0.3,0.1c0.1,0,0.1,0.1,0.2,0.2l4.1,6c0.1-0.1,0.1-0.3,0.2-0.5l3.8-5.5
		c0.1-0.1,0.1-0.2,0.2-0.2c0.1-0.1,0.2-0.1,0.3-0.1h2l-5.2,7.2l5.3,7.8h-2.1c-0.2,0-0.3,0-0.4-0.1c-0.1-0.1-0.2-0.2-0.2-0.3
		l-4.2-6.3c-0.1,0.1-0.1,0.3-0.2,0.4l-4.1,5.9c-0.1,0.1-0.1,0.2-0.2,0.3c-0.1,0.1-0.2,0.1-0.4,0.1h-2L277.3,95.3z"/>
	<path class="st0" d="M294.5,103h-2.1V88h2.1V103z"/>
	<path class="st0" d="M305.1,101.3h6.7v1.7H303V88h2.1V101.3z"/>
	<path class="st0" d="M320.6,101.3h6.7v1.7h-8.8V88h2.1V101.3z"/>
	<path class="st0" d="M347.6,95.5c0,1.1-0.2,2.2-0.6,3.1s-0.9,1.8-1.6,2.4c-0.7,0.7-1.5,1.2-2.4,1.6c-0.9,0.4-2,0.6-3.1,0.6
		c-1.1,0-2.2-0.2-3.1-0.6c-0.9-0.4-1.7-0.9-2.4-1.6c-0.7-0.7-1.2-1.5-1.6-2.4c-0.4-0.9-0.6-2-0.6-3.1c0-1.1,0.2-2.2,0.6-3.1
		c0.4-0.9,0.9-1.8,1.6-2.4c0.7-0.7,1.5-1.2,2.4-1.6c0.9-0.4,2-0.6,3.1-0.6c1.1,0,2.2,0.2,3.1,0.6c0.9,0.4,1.8,0.9,2.4,1.6
		s1.2,1.5,1.6,2.4C347.4,93.3,347.6,94.4,347.6,95.5z M345.4,95.5c0-0.9-0.1-1.8-0.4-2.5c-0.3-0.7-0.6-1.4-1.1-1.9
		c-0.5-0.5-1.1-0.9-1.7-1.2c-0.7-0.3-1.4-0.4-2.3-0.4c-0.8,0-1.6,0.1-2.3,0.4c-0.7,0.3-1.3,0.7-1.7,1.2c-0.5,0.5-0.9,1.1-1.1,1.9
		c-0.3,0.7-0.4,1.6-0.4,2.5c0,0.9,0.1,1.8,0.4,2.5c0.3,0.7,0.6,1.4,1.1,1.9c0.5,0.5,1.1,0.9,1.7,1.2c0.7,0.3,1.4,0.4,2.3,0.4
		c0.8,0,1.6-0.1,2.3-0.4c0.7-0.3,1.3-0.7,1.7-1.2c0.5-0.5,0.8-1.1,1.1-1.9C345.3,97.2,345.4,96.4,345.4,95.5z"/>
	<path class="st0" d="M364.4,88v1.7h-7.5v5.3h6.4v1.7h-6.4v6.5h-2.1V88H364.4z"/>
	<path class="st0" d="M382.8,103h-1.6c-0.2,0-0.3,0-0.5-0.1c-0.1-0.1-0.2-0.2-0.3-0.3l-1.5-3.6h-7l-1.5,3.6
		c-0.1,0.1-0.1,0.2-0.3,0.3c-0.1,0.1-0.3,0.1-0.5,0.1h-1.6l6.2-15h2.1L382.8,103z M372.6,97.4h5.8l-2.4-6.1
		c-0.2-0.4-0.3-0.9-0.5-1.4c-0.1,0.3-0.2,0.6-0.2,0.8c-0.1,0.2-0.1,0.5-0.2,0.6L372.6,97.4z"/>
	<path class="st0" d="M399.6,99.9c0.1,0,0.2,0,0.3,0.1l0.8,0.9c-0.6,0.7-1.4,1.3-2.3,1.7c-0.9,0.4-2,0.6-3.3,0.6
		c-1.1,0-2.1-0.2-3-0.6c-0.9-0.4-1.7-0.9-2.3-1.6c-0.6-0.7-1.1-1.5-1.5-2.4c-0.4-0.9-0.5-2-0.5-3.1c0-1.1,0.2-2.2,0.6-3.1
		c0.4-0.9,0.9-1.8,1.6-2.4c0.7-0.7,1.5-1.2,2.5-1.6c1-0.4,2-0.6,3.2-0.6c1.1,0,2.1,0.2,3,0.5c0.8,0.3,1.6,0.8,2.2,1.4l-0.7,0.9
		c-0.1,0.1-0.1,0.1-0.2,0.2c-0.1,0-0.2,0.1-0.3,0.1c-0.1,0-0.2,0-0.3-0.1c-0.1-0.1-0.2-0.1-0.4-0.2c-0.1-0.1-0.3-0.2-0.5-0.3
		c-0.2-0.1-0.4-0.2-0.7-0.3c-0.3-0.1-0.6-0.2-0.9-0.2c-0.4-0.1-0.8-0.1-1.2-0.1c-0.8,0-1.6,0.1-2.3,0.4c-0.7,0.3-1.3,0.7-1.8,1.2
		c-0.5,0.5-0.9,1.1-1.2,1.9c-0.3,0.7-0.4,1.6-0.4,2.5c0,0.9,0.1,1.8,0.4,2.5c0.3,0.7,0.7,1.4,1.1,1.9c0.5,0.5,1.1,0.9,1.7,1.2
		c0.7,0.3,1.4,0.4,2.1,0.4c0.5,0,0.9,0,1.2-0.1c0.4-0.1,0.7-0.1,1-0.2c0.3-0.1,0.6-0.3,0.9-0.4c0.3-0.2,0.5-0.4,0.8-0.6
		C399.3,99.9,399.5,99.9,399.6,99.9z"/>
	<path class="st0" d="M410.3,103h-2.1V88h2.1V103z"/>
	<path class="st0" d="M431.6,103H430c-0.2,0-0.3,0-0.5-0.1c-0.1-0.1-0.2-0.2-0.3-0.3l-1.5-3.6h-7l-1.5,3.6c-0.1,0.1-0.1,0.2-0.3,0.3
		c-0.1,0.1-0.3,0.1-0.5,0.1h-1.6l6.2-15h2.1L431.6,103z M421.4,97.4h5.8l-2.4-6.1c-0.2-0.4-0.3-0.9-0.5-1.4
		c-0.1,0.3-0.2,0.6-0.2,0.8c-0.1,0.2-0.1,0.5-0.2,0.6L421.4,97.4z"/>
	<path class="st0" d="M440,101.3h6.7v1.7h-8.8V88h2.1V101.3z"/>
	<path class="st0" d="M469.9,90.3c-0.1,0.1-0.1,0.2-0.2,0.2c-0.1,0.1-0.2,0.1-0.3,0.1c-0.1,0-0.3-0.1-0.4-0.2
		c-0.2-0.1-0.4-0.3-0.6-0.4c-0.3-0.1-0.6-0.3-0.9-0.4c-0.4-0.1-0.8-0.2-1.3-0.2c-0.5,0-0.9,0.1-1.2,0.2c-0.4,0.1-0.7,0.3-0.9,0.5
		c-0.2,0.2-0.4,0.5-0.5,0.7c-0.1,0.3-0.2,0.6-0.2,0.9c0,0.4,0.1,0.8,0.3,1c0.2,0.3,0.5,0.5,0.8,0.7c0.4,0.2,0.7,0.4,1.2,0.5
		c0.4,0.1,0.9,0.3,1.4,0.4c0.5,0.2,0.9,0.3,1.4,0.5c0.4,0.2,0.8,0.4,1.2,0.7c0.4,0.3,0.6,0.7,0.8,1.1c0.2,0.4,0.3,1,0.3,1.6
		c0,0.7-0.1,1.3-0.3,1.9c-0.2,0.6-0.6,1.1-1,1.5c-0.4,0.4-1,0.8-1.6,1c-0.6,0.2-1.4,0.4-2.2,0.4c-1,0-1.9-0.2-2.8-0.5
		c-0.8-0.4-1.5-0.8-2.1-1.4l0.6-1c0.1-0.1,0.1-0.1,0.2-0.2c0.1-0.1,0.2-0.1,0.3-0.1c0.2,0,0.3,0.1,0.5,0.2c0.2,0.2,0.4,0.3,0.7,0.5
		c0.3,0.2,0.6,0.4,1.1,0.5c0.4,0.2,0.9,0.2,1.5,0.2c0.5,0,0.9-0.1,1.3-0.2c0.4-0.1,0.7-0.3,1-0.6c0.3-0.2,0.5-0.5,0.6-0.9
		c0.1-0.3,0.2-0.7,0.2-1.1c0-0.5-0.1-0.8-0.3-1.1c-0.2-0.3-0.5-0.5-0.8-0.7c-0.3-0.2-0.7-0.4-1.2-0.5c-0.4-0.1-0.9-0.3-1.4-0.4
		c-0.5-0.1-0.9-0.3-1.4-0.5c-0.4-0.2-0.8-0.4-1.2-0.7c-0.3-0.3-0.6-0.7-0.8-1.1c-0.2-0.5-0.3-1-0.3-1.7c0-0.5,0.1-1,0.3-1.5
		c0.2-0.5,0.5-0.9,0.9-1.3c0.4-0.4,0.9-0.7,1.5-0.9c0.6-0.2,1.3-0.3,2.1-0.3c0.9,0,1.7,0.1,2.4,0.4c0.7,0.3,1.3,0.7,1.9,1.2
		L469.9,90.3z"/>
	<path class="st0" d="M483.9,101.4c0.6,0,1.2-0.1,1.7-0.3c0.5-0.2,0.9-0.5,1.3-0.9c0.4-0.4,0.6-0.8,0.8-1.4c0.2-0.5,0.3-1.1,0.3-1.7
		V88h2.1v9.1c0,0.9-0.1,1.7-0.4,2.4c-0.3,0.7-0.7,1.4-1.2,1.9c-0.5,0.5-1.2,1-1.9,1.3c-0.8,0.3-1.6,0.5-2.6,0.5
		c-1,0-1.8-0.2-2.6-0.5c-0.8-0.3-1.4-0.7-2-1.3c-0.5-0.5-0.9-1.2-1.2-1.9c-0.3-0.7-0.4-1.5-0.4-2.4V88h2.1v9.1
		c0,0.6,0.1,1.2,0.3,1.7c0.2,0.5,0.5,1,0.8,1.4c0.4,0.4,0.8,0.7,1.3,0.9C482.6,101.3,483.2,101.4,483.9,101.4z"/>
	<path class="st0" d="M500.3,96.7v6.3h-2.1V88h4.4c1,0,1.8,0.1,2.6,0.3c0.7,0.2,1.3,0.5,1.8,0.8c0.5,0.4,0.8,0.8,1,1.3
		c0.2,0.5,0.3,1.1,0.3,1.7c0,0.5-0.1,1-0.3,1.5c-0.2,0.5-0.4,0.9-0.8,1.2s-0.7,0.7-1.2,0.9c-0.5,0.3-1,0.5-1.6,0.6
		c0.3,0.1,0.5,0.4,0.7,0.6l4.5,6h-1.9c-0.4,0-0.7-0.1-0.8-0.4l-4-5.4c-0.1-0.2-0.3-0.3-0.4-0.4c-0.1-0.1-0.4-0.1-0.7-0.1H500.3z
		 M500.3,95.2h2.2c0.6,0,1.2-0.1,1.6-0.2c0.5-0.1,0.9-0.3,1.2-0.6c0.3-0.3,0.6-0.6,0.7-0.9c0.2-0.4,0.2-0.8,0.2-1.2
		c0-0.9-0.3-1.6-0.9-2c-0.6-0.5-1.5-0.7-2.7-0.7h-2.3V95.2z"/>
	<path class="st0" d="M522.8,101.5c0.4,0,0.8,0,1.2-0.1c0.4,0,0.7-0.1,1-0.2c0.3-0.1,0.6-0.2,0.9-0.3c0.3-0.1,0.5-0.2,0.8-0.4v-3.3
		h-2.4c-0.1,0-0.2,0-0.3-0.1c-0.1-0.1-0.1-0.2-0.1-0.3v-1.2h4.8v5.8c-0.4,0.3-0.8,0.5-1.2,0.7c-0.4,0.2-0.9,0.4-1.4,0.5
		c-0.5,0.1-1,0.2-1.5,0.3c-0.5,0.1-1.1,0.1-1.8,0.1c-1.1,0-2.2-0.2-3.1-0.6c-0.9-0.4-1.8-0.9-2.4-1.6c-0.7-0.7-1.2-1.5-1.6-2.4
		c-0.4-0.9-0.6-2-0.6-3.1c0-1.1,0.2-2.2,0.6-3.1c0.4-0.9,0.9-1.8,1.6-2.4c0.7-0.7,1.5-1.2,2.5-1.6c1-0.4,2.1-0.6,3.3-0.6
		c0.6,0,1.2,0,1.7,0.1c0.5,0.1,1,0.2,1.5,0.4c0.5,0.2,0.9,0.4,1.3,0.6c0.4,0.2,0.7,0.5,1.1,0.8l-0.6,0.9c-0.1,0.2-0.3,0.3-0.5,0.3
		c-0.1,0-0.2,0-0.4-0.1c-0.2-0.1-0.4-0.2-0.6-0.4c-0.2-0.1-0.5-0.3-0.8-0.4c-0.3-0.1-0.7-0.2-1.1-0.3c-0.4-0.1-1-0.1-1.6-0.1
		c-0.9,0-1.7,0.1-2.4,0.4c-0.7,0.3-1.3,0.7-1.8,1.2c-0.5,0.5-0.9,1.1-1.2,1.9s-0.4,1.6-0.4,2.5c0,1,0.1,1.8,0.4,2.5s0.7,1.4,1.2,1.9
		c0.5,0.5,1.1,0.9,1.8,1.2C521.2,101.4,521.9,101.5,522.8,101.5z"/>
	<path class="st0" d="M545.7,88v1.7h-7.5v5h6v1.6h-6v5.1h7.5v1.7h-9.6V88H545.7z"/>
	<path class="st0" d="M555.4,96.7v6.3h-2.1V88h4.4c1,0,1.8,0.1,2.6,0.3c0.7,0.2,1.3,0.5,1.8,0.8c0.5,0.4,0.8,0.8,1,1.3
		c0.2,0.5,0.3,1.1,0.3,1.7c0,0.5-0.1,1-0.3,1.5c-0.2,0.5-0.4,0.9-0.8,1.2s-0.7,0.7-1.2,0.9c-0.5,0.3-1,0.5-1.6,0.6
		c0.3,0.1,0.5,0.4,0.7,0.6l4.5,6h-1.9c-0.4,0-0.7-0.1-0.8-0.4l-4-5.4c-0.1-0.2-0.3-0.3-0.4-0.4c-0.1-0.1-0.4-0.1-0.7-0.1H555.4z
		 M555.4,95.2h2.2c0.6,0,1.2-0.1,1.6-0.2c0.5-0.1,0.9-0.3,1.2-0.6c0.3-0.3,0.6-0.6,0.7-0.9c0.2-0.4,0.2-0.8,0.2-1.2
		c0-0.9-0.3-1.6-0.9-2c-0.6-0.5-1.5-0.7-2.7-0.7h-2.3V95.2z"/>
	<path class="st0" d="M577.4,97v6h-2.1v-6l-5.7-9.1h1.8c0.2,0,0.3,0,0.4,0.1s0.2,0.2,0.3,0.3l3.6,5.8c0.1,0.2,0.3,0.5,0.4,0.7
		c0.1,0.2,0.2,0.4,0.3,0.6c0.1-0.2,0.2-0.4,0.3-0.7c0.1-0.2,0.2-0.4,0.4-0.7l3.5-5.8c0.1-0.1,0.2-0.2,0.3-0.3
		c0.1-0.1,0.3-0.2,0.4-0.2h1.9L577.4,97z"/>
</g>
<g>
	<polygon class="st0" points="101.6,13 88.6,13 88.6,0 83.6,0 83.6,13 70.6,13 70.6,18 83.6,18 83.6,31 88.6,31 88.6,18 101.6,18 	
		"/>
	<polygon class="st0" points="70.9,59 50.6,97.1 30.2,59 24.4,59 50.6,107.9 76.7,59 	"/>
	<polygon class="st0" points="80.5,51 88.8,36 83,36 74.7,51 	"/>
	<polygon class="st0" points="26.5,51 8.5,18 64.6,18 64.6,13 0,13 20.7,51 	"/>
</g>
<path class="st0" d="M87,53.3c-0.7,0-1.4,0.4-1.8,1l-19.9,0l-3.2,2l-6.7-24.5L43.7,61.6l-8.8-17.2L28.8,54H13.5
	c-0.3-0.8-1.1-1.4-2-1.4c-1.2,0-2.1,0.9-2.1,2.1c0,1.2,0.9,2.1,2.1,2.1c0.6,0,1.2-0.3,1.6-0.8c0,0,0,0,0.1,0h16.9l4.6-7L44,67.5
	l11.1-28.2L61,60.8l5.3-4.1l19,0c0.4,0.5,1,0.8,1.7,0.8c1.2,0,2.1-0.9,2.1-2.1C89.1,54.2,88.2,53.3,87,53.3z"/>
</svg>
