<?xml version="1.0" encoding="utf-8"?>
<!-- Generator: Adobe Illustrator 16.0.0, SVG Export Plug-In . SVG Version: 6.00 Build 0)  -->
<!DOCTYPE svg PUBLIC "-//W3C//DTD SVG 1.1//EN" "http://www.w3.org/Graphics/SVG/1.1/DTD/svg11.dtd">
<svg version="1.1" id="Layer_1" xmlns="http://www.w3.org/2000/svg" xmlns:xlink="http://www.w3.org/1999/xlink" x="0px" y="0px"
	 width="50px" height="50px" viewBox="0 0 32 32" enable-background="new 0 0 32 32" xml:space="preserve">
<g>
	<path fill="#FFFFFF" d="M16,32C7.178,32,0,24.822,0,16S7.178,0,16,0s16,7.178,16,16S24.822,32,16,32z M16,2C8.28,2,2,8.28,2,16
		s6.28,14,14,14s14-6.28,14-14S23.72,2,16,2z"/>
</g>
<g>
	<path fill="#FFFFFF" d="M22.164,23.164c-0.256,0-0.512-0.098-0.707-0.293l-6.164-6.164C15.105,16.52,15,16.265,15,16V4.79
		c0-0.552,0.447-1,1-1s1,0.448,1,1v10.796l5.871,5.871c0.391,0.391,0.391,1.023,0,1.414C22.676,23.066,22.42,23.164,22.164,23.164z"
		/>
</g>
</svg>
