<?xml version="1.0" encoding="utf-8"?>
<!-- Generator: Adobe Illustrator 16.0.0, SVG Export Plug-In . SVG Version: 6.00 Build 0)  -->
<!DOCTYPE svg PUBLIC "-//W3C//DTD SVG 1.1//EN" "http://www.w3.org/Graphics/SVG/1.1/DTD/svg11.dtd">
<svg version="1.1" id="Layer_1" xmlns="http://www.w3.org/2000/svg" xmlns:xlink="http://www.w3.org/1999/xlink" x="0px" y="0px"
	 width="50px" height="50px" viewBox="0 0 20.008 20.015" enable-background="new 0 0 20.008 20.015" xml:space="preserve">
<g>
	<g>
		<g>
			<path fill="#FFFFFF" d="M19.877,16.36c0.138,0.102,0.168,0.297,0.066,0.436s-0.297,0.169-0.436,0.067l-4.875-3.573l-0.316,0.315
				l-0.505,0.506c-1.201,1.201-3.004,0.917-4.663-0.093c-0.622-0.379-1.225-0.859-1.764-1.398c-0.538-0.539-1.02-1.142-1.398-1.764
				c-1.012-1.66-1.298-3.462-0.104-4.655l0.83-0.83L3.354,0.787L1.838,2.292v0L1.825,2.306c-1.19,1.19-1.503,2.77-0.893,4.685
				c0.634,1.989,2.244,4.337,4.877,6.988l0.106,0.107v-0.001c0.181,0.18,0.328,0.326,0.443,0.438
				c2.557,2.479,4.829,3.998,6.756,4.588c1.856,0.567,3.39,0.26,4.539-0.891l0.016-0.015l0.037-0.037l1.766-1.779
				c0.12-0.123,0.318-0.126,0.441-0.006s0.126,0.318,0.006,0.441l-1.766,1.778l-0.001,0.002l-0.039,0.038l-0.018,0.02
				c-1.324,1.325-3.067,1.685-5.162,1.044c-2.023-0.619-4.381-2.188-7.01-4.736c-0.182-0.175-0.332-0.323-0.451-0.442h0.001
				l-0.001-0.001l-0.106-0.107c-2.703-2.724-4.365-5.156-5.028-7.24C-0.349,5.022,0.017,3.23,1.383,1.864l0.013-0.013l0.001,0
				l0.001,0L3.171,0.09c0.011-0.011,0.022-0.021,0.035-0.03C3.345-0.042,3.54-0.012,3.642,0.127L7.36,5.199
				c0.104,0.123,0.1,0.309-0.016,0.425l-1.02,1.02c-0.95,0.95-0.673,2.464,0.194,3.888c0.351,0.575,0.8,1.138,1.309,1.646
				c0.508,0.509,1.07,0.958,1.646,1.309c1.423,0.866,2.938,1.141,3.896,0.183l0.505-0.505l0.505-0.505l0.001,0.001
				c0.106-0.107,0.278-0.124,0.404-0.031L19.877,16.36z"/>
			<path fill="#FFFFFF" d="M18.649,17.549c0.139,0.102,0.169,0.297,0.067,0.436s-0.297,0.169-0.436,0.067l-1.273-0.933l-1.273-0.934
				l-1.272-0.933c-0.14-0.102-0.17-0.297-0.068-0.436s0.298-0.169,0.437-0.067l1.273,0.934l1.272,0.933L18.649,17.549z"/>
			<path fill="#FFFFFF" d="M1.779,1.854C1.678,1.716,1.708,1.52,1.847,1.418s0.334-0.071,0.437,0.067l0.932,1.273l0.934,1.272
				l0.933,1.273c0.102,0.139,0.072,0.334-0.067,0.436C4.875,5.842,4.68,5.813,4.578,5.674L3.646,4.399L2.713,3.127L1.779,1.854z"/>
		</g>
	</g>
</g>
</svg>
