<?xml version="1.0" encoding="utf-8"?>
<!-- Generator: Adobe Illustrator 16.0.0, SVG Export Plug-In . SVG Version: 6.00 Build 0)  -->
<!DOCTYPE svg PUBLIC "-//W3C//DTD SVG 1.1//EN" "http://www.w3.org/Graphics/SVG/1.1/DTD/svg11.dtd">
<svg version="1.1" id="Play_round" xmlns="http://www.w3.org/2000/svg" xmlns:xlink="http://www.w3.org/1999/xlink" x="0px" y="0px"
	 width="29.99px" height="29.988px" viewBox="0 0 29.99 29.988" enable-background="new 0 0 29.99 29.988" xml:space="preserve">
<g>
	<path fill="#FFFFFF" d="M14.992,0C6.725,0,0,6.727,0,14.996c0,8.268,6.725,14.992,14.992,14.992S29.99,23.264,29.99,14.996
		C29.99,6.727,23.26,0,14.992,0z M14.992,28.912c-7.674,0-13.916-6.24-13.916-13.916s6.242-13.92,13.916-13.92
		c7.676,0,13.922,6.244,13.922,13.92S22.668,28.912,14.992,28.912z"/>
	<path fill="#FFFFFF" d="M21.752,13.576l-9.387-5.211C11.086,7.654,9.861,8.408,9.861,9.84v10.309c0,1.053,0.605,1.762,1.504,1.762
		c0.324,0,0.662-0.096,1.002-0.285l9.385-5.213c0.621-0.344,0.979-0.861,0.979-1.416S22.373,13.924,21.752,13.576z M21.229,15.471
		l-9.383,5.213c-0.178,0.098-0.342,0.15-0.48,0.15c-0.371,0-0.428-0.428-0.428-0.686V9.84c0-0.256,0.057-0.684,0.428-0.684
		c0.139,0,0.303,0.053,0.48,0.15l9.383,5.211c0.262,0.146,0.426,0.33,0.426,0.479C21.654,15.143,21.49,15.326,21.229,15.471z"/>
</g>
</svg>
