<?xml version="1.0" encoding="utf-8"?>
<!-- Generator: Adobe Illustrator 19.0.0, SVG Export Plug-In . SVG Version: 6.00 Build 0)  -->
<svg version="1.1" id="Layer_1" xmlns="http://www.w3.org/2000/svg" xmlns:xlink="http://www.w3.org/1999/xlink" x="0px" y="0px"
	 viewBox="-283 375 44 44" style="enable-background:new -283 375 44 44;" xml:space="preserve">
<style type="text/css">
	.st0{opacity:0.2;fill:#FFFFFF;}
	.st1{fill:#FFFFFF;}
</style>
<rect x="-283" y="375" class="st0" width="44" height="44"/>
<path class="st1" d="M-255.4,396.6L-255.4,396.6l-6.2-6.9l0,0c-0.1-0.1-0.3-0.2-0.5-0.2c-0.3,0-0.6,0.3-0.6,0.6
	c0,0.2,0.1,0.3,0.2,0.4l0,0l5.9,6.5l-5.9,6.5l0,0c-0.1,0.1-0.2,0.3-0.2,0.4c0,0.3,0.3,0.6,0.6,0.6c0.2,0,0.3-0.1,0.5-0.2l0,0
	l6.3-6.9l0,0c0.1-0.1,0.2-0.3,0.2-0.4S-255.3,396.7-255.4,396.6"/>
</svg>
