<?xml version="1.0" encoding="utf-8"?>
<!-- Generator: Adobe Illustrator 19.0.0, SVG Export Plug-In . SVG Version: 6.00 Build 0)  -->
<svg version="1.1" id="icons" xmlns="http://www.w3.org/2000/svg" xmlns:xlink="http://www.w3.org/1999/xlink" x="0px" y="0px"
	 viewBox="0 0 69.9 48.4" style="enable-background:new 0 0 69.9 48.4;" xml:space="preserve">
<style type="text/css">
	.st0{fill:#6AADA4;}
</style>
<g>
	<path class="st0" d="M30.7,6.4H19.5c-1.1,0-2,0.9-2,2v9.1c0,1.1,0.9,2,2,2h11.1c1.1,0,2-0.9,2-2V8.4C32.7,7.3,31.8,6.4,30.7,6.4z
		 M30.7,17.5H19.5V8.4h11.1V17.5z"/>
	<path class="st0" d="M52.9,17.5V8.4c0-1.1-0.9-2-2-2H39.8c-1.1,0-2,0.9-2,2v9.1c0,1.1,0.9,2,2,2h11.1C52,19.5,52.9,18.6,52.9,17.5z
		 M39.8,8.4h11.1v9.1H39.8V8.4z"/>
	<path class="st0" d="M68.9,23.2h-2.2v-8.7c0-0.8-0.7-1.5-1.5-1.5h-5.8V5.7c0-3.2-2.6-5.7-5.7-5.7h-37C13.6,0,11,2.6,11,5.7V13H5.3
		c-0.8,0-1.5,0.7-1.5,1.5v8.7H1c-0.6,0-1,0.4-1,1c0,0.6,0.4,1,1,1h2.8v8.7c0,0.8,0.7,1.5,1.5,1.5H11v7.2c0,3.2,2.6,5.7,5.7,5.7h37
		c3.2,0,5.7-2.6,5.7-5.7v-7.2h5.8c0.8,0,1.5-0.7,1.5-1.5v-8.7h2.2c0.6,0,1-0.4,1-1C69.9,23.7,69.4,23.2,68.9,23.2z M63.7,16v7.2
		h-4.3V16H63.7z M6.8,16H11v7.2H6.8V16z M6.8,32.4v-7.2H11v7.2H6.8z M53.7,45.4h-37c-1.5,0-2.7-1.2-2.7-2.7V25.2h33c0.6,0,1-0.4,1-1
		c0-0.6-0.4-1-1-1H14V5.7C14,4.2,15.2,3,16.7,3h37c1.5,0,2.7,1.2,2.7,2.7v17.5h-3.8c-0.6,0-1,0.4-1,1c0,0.6,0.4,1,1,1h3.8v17.5
		C56.4,44.2,55.2,45.4,53.7,45.4z M63.7,32.4h-4.3v-7.2h4.3V32.4z"/>
	<path class="st0" d="M30.7,28.8H19.5c-1.1,0-2,0.9-2,2v9.1c0,1.1,0.9,2,2,2h11.1c1.1,0,2-0.9,2-2v-9.1
		C32.7,29.7,31.8,28.8,30.7,28.8z M30.7,39.9H19.5v-9.1h11.1V39.9z"/>
	<path class="st0" d="M50.9,28.8H39.8c-1.1,0-2,0.9-2,2v9.1c0,1.1,0.9,2,2,2h11.1c1.1,0,2-0.9,2-2v-9.1C52.9,29.7,52,28.8,50.9,28.8
		z M50.9,39.9H39.8v-9.1h11.1V39.9z"/>
</g>
</svg>
