<?xml version="1.0" encoding="utf-8"?>
<!-- Generator: Adobe Illustrator 19.0.0, SVG Export Plug-In . SVG Version: 6.00 Build 0)  -->
<svg version="1.1" id="icons" xmlns="http://www.w3.org/2000/svg" xmlns:xlink="http://www.w3.org/1999/xlink" x="0px" y="0px"
	 viewBox="0 0 69.7 54.9" style="enable-background:new 0 0 69.7 54.9;" xml:space="preserve">
<style type="text/css">
	.st0{fill:#6AADA4;}
</style>
<g>
	<path class="st0" d="M66.7,0H3C1.3,0,0,1.3,0,3v48.9c0,1.7,1.3,3,3,3h63.7c1.7,0,3-1.3,3-3V3C69.7,1.3,68.4,0,66.7,0z M66.7,51.9H3
		V3h63.7V51.9z"/>
	<path class="st0" d="M12.7,37.9c2.7,0,4.8-2.2,4.8-4.8c0-0.4-0.1-0.8-0.2-1.2l5.8-3c2.1,14.6,5.2,16.5,7.4,16.5
		c1,0,1.9-0.4,2.4-1.1c0.6-0.8,0.8-1.8,0.6-3.2c-0.8-3.9-0.9-8.7,0.4-10.2c0.3-0.3,0.6-0.5,1-0.5c0.4,0,0.7,0.1,1,0.5
		c1.2,1.5,1.1,6.3,0.4,10.2c-0.3,1.3-0.1,2.4,0.6,3.2c0.6,0.7,1.5,1.1,2.4,1.1c2.4,0,5.9-2.2,8-21.7c0.1-0.5,0.1-1.1,0.1-1.6
		l6.6-5.5c0.8,0.7,1.9,1.1,3,1.1c2.7,0,4.8-2.2,4.8-4.8c0-2.7-2.2-4.8-4.8-4.8s-4.8,2.2-4.8,4.8c0,0.8,0.2,1.5,0.6,2.2l-5.4,4.4
		c-0.2-2.1-0.7-3.7-1.6-4.7c-1.5-1.7-3.9-2.1-7.4-1.1c-1.4,0.4-2.4,0.5-3.4,0.5c-1,0-2-0.1-3.4-0.5c-3.5-0.9-5.9-0.5-7.4,1.1
		c-1.5,1.7-2,4.6-1.5,8.9c0.1,1.1,0.2,2.1,0.4,3.1L16.4,30c-0.9-1.1-2.2-1.8-3.7-1.8c-2.7,0-4.8,2.2-4.8,4.8S10,37.9,12.7,37.9z
		 M54.2,12.9c0-1.6,1.3-2.8,2.8-2.8c1.6,0,2.8,1.3,2.8,2.8c0,1.6-1.3,2.8-2.8,2.8c-0.5,0-1-0.1-1.4-0.4l2-1.7c0.4-0.4,0.5-1,0.1-1.4
		c-0.4-0.4-1-0.5-1.4-0.1l-2,1.7C54.3,13.5,54.2,13.2,54.2,12.9z M24.5,23.5c-0.4-3.7-0.1-6.1,1-7.4c1-1.1,2.7-1.3,5.4-0.5
		c1.6,0.4,2.7,0.6,3.9,0.6c1.2,0,2.3-0.2,3.9-0.6c2.7-0.7,4.5-0.5,5.4,0.5c0.8,0.9,1.2,2.6,1.2,5l-3.8,3.1C41.4,24.1,41,24,40.7,24
		c-1.3,0-2.3,1-2.3,2.3c0,1.3,1,2.3,2.3,2.3c1.3,0,2.3-1,2.3-2.3c0-0.2,0-0.4-0.1-0.5l2.3-1.9c-2.1,18.5-5.4,19.5-6,19.5
		c-0.1,0-0.6,0-0.9-0.4c-0.3-0.4-0.3-1-0.2-1.5c0.3-1.5,1.6-9-0.8-11.9c-0.6-0.8-1.5-1.2-2.5-1.2c-1,0-1.9,0.4-2.5,1.2
		C30,32.5,31.3,40,31.6,41.5c0.1,0.5,0.1,1.1-0.2,1.5c-0.3,0.3-0.8,0.4-0.9,0.4c-0.6,0-3.4-0.8-5.5-15.4l8.5-4.3
		c0.4,0.3,0.8,0.5,1.3,0.5c1.3,0,2.3-1,2.3-2.3c0-1.3-1-2.3-2.3-2.3c-1.3,0-2.3,1-2.3,2.3c0,0,0,0,0,0l-7.9,4
		C24.6,25.1,24.5,24.3,24.5,23.5z M12.7,30.2c0.7,0,1.4,0.3,1.9,0.7l-2.3,1.2c-0.5,0.3-0.7,0.9-0.4,1.3c0.2,0.3,0.5,0.5,0.9,0.5
		c0.2,0,0.3,0,0.5-0.1l2.3-1.2c0,0.1,0,0.2,0,0.3c0,1.6-1.3,2.8-2.8,2.8s-2.8-1.3-2.8-2.8C9.9,31.5,11.1,30.2,12.7,30.2z"/>
	<path class="st0" d="M8.9,10.8h10.8c0.6,0,1-0.4,1-1c0-0.6-0.4-1-1-1H8.9c-0.6,0-1,0.4-1,1C7.9,10.3,8.3,10.8,8.9,10.8z"/>
	<path class="st0" d="M8.9,15.5h7.2c0.6,0,1-0.4,1-1c0-0.6-0.4-1-1-1H8.9c-0.6,0-1,0.4-1,1C7.9,15.1,8.3,15.5,8.9,15.5z"/>
	<path class="st0" d="M61.3,45.1h-7.2c-0.6,0-1,0.4-1,1s0.4,1,1,1h7.2c0.6,0,1-0.4,1-1S61.9,45.1,61.3,45.1z"/>
	<path class="st0" d="M57,40.5c-0.6,0-1,0.4-1,1c0,0.6,0.4,1,1,1h4.3c0.6,0,1-0.4,1-1c0-0.6-0.4-1-1-1H57z"/>
	<path class="st0" d="M53.5,41.5c0-0.6-0.4-1-1-1h-1.3c-0.6,0-1,0.4-1,1c0,0.6,0.4,1,1,1h1.3C53.1,42.5,53.5,42,53.5,41.5z"/>
</g>
</svg>
