<?xml version="1.0" encoding="utf-8"?>
<!-- Generator: Adobe Illustrator 19.0.0, SVG Export Plug-In . SVG Version: 6.00 Build 0)  -->
<svg version="1.1" id="icons" xmlns="http://www.w3.org/2000/svg" xmlns:xlink="http://www.w3.org/1999/xlink" x="0px" y="0px"
	 viewBox="0 0 69.4 69.8" style="enable-background:new 0 0 69.4 69.8;" xml:space="preserve">
<style type="text/css">
	.st0{fill:#6AADA4;}
</style>
<g>
	<circle class="st0" cx="45.2" cy="24.2" r="2.7"/>
	<path class="st0" d="M68.4,11.1C67.9,10.2,67,9.6,66,9.4c-0.1,0-0.2,0-0.3,0c-0.9,0-1.8,0.4-2.3,1.1c-0.1,0.1-4.2,5-10.8,6.3
		c1.1-6.7,6-10.7,6.1-10.8c0.8-0.7,1.2-1.7,1.1-2.7c-0.1-1-0.8-1.9-1.7-2.4C56.7,0.3,55.3,0,54,0h0c-2.9,0-5.7,1.5-8.7,4.5
		c-3.2,3.4-4.4,8.3-4.8,11c-0.1,0.1-0.2,0.1-0.3,0.2c-0.1,0-0.1,0.1-0.2,0.1c-0.3,0.2-0.7,0.4-1,0.7c-0.5,0.4-1,0.9-1.4,1.4
		C20.6,19.6,6,31.1,0.3,47.4C0.1,48.1,0,48.7,0,49.4c0,1.9,0.9,3.6,2.3,4.7c0.5,0.4,1.1,0.7,1.7,0.9c0.6,0.2,1.3,0.3,2,0.3
		c2.6,0,4.9-1.6,5.7-4c4-11.3,13.9-19.5,25.6-21.3c0.1,0.1,0.1,0.2,0.2,0.3c0.6,0.7,1.2,1.3,1.9,1.8C37.8,43.9,29.8,54,18.5,58.1
		c-3.1,1.1-4.7,4.6-3.6,7.7c0.2,0.6,0.5,1.2,1,1.7c1.2,1.4,2.9,2.3,4.7,2.3c0.7,0,1.4-0.1,2.1-0.4c16.2-5.9,27.5-20.6,29-37.8
		c0.5-0.4,1-0.9,1.4-1.4c0.4-0.5,0.7-1,0.9-1.5c2.7-0.4,7.6-1.7,11-4.9c3-3,4.5-5.8,4.4-8.7C69.4,13.8,69,12.5,68.4,11.1z
		 M49.5,29.6c-0.2,0.2-0.5,0.4-0.8,0.5c0,0,0,0,0,0c-1.1,0.6-2.3,1-3.5,1c-1.5,0-3-0.5-4.2-1.5c-0.9-0.7-1.6-1.7-2.1-2.7
		c0,0,0,0,0,0c-0.8-2-0.7-4.3,0.4-6.1c0,0,0,0,0,0c0.2-0.3,0.3-0.5,0.5-0.8c0.7-0.9,1.5-1.5,2.4-1.9c0,0,0.1,0,0.1-0.1
		c0.2-0.1,0.3-0.1,0.5-0.2c0.1,0,0.2-0.1,0.3-0.1c0.7-0.2,1.4-0.3,2.1-0.3c1.5,0,3,0.5,4.2,1.5c0.1,0.1,0.2,0.2,0.4,0.3
		c0.3,0.3,0.5,0.6,0.7,0.8C53,22.9,52.5,27.2,49.5,29.6z M47.5,6.6C50.1,3.9,52.2,3,54,3c1,0,1.9,0.3,2.7,0.7c0,0-5.4,4.4-7,11.8
		c-1.4-0.7-2.9-1.1-4.5-1.1c-0.5,0-1,0.1-1.5,0.1C44.3,12.1,45.3,8.9,47.5,6.6z M8.9,50.4c-0.4,1.3-1.6,2-2.9,2
		c-0.3,0-0.7-0.1-1-0.2c-0.3-0.1-0.6-0.3-0.9-0.5C3.4,51.2,3,50.3,3,49.4c0-0.3,0.1-0.7,0.2-1c5.1-14.5,17.7-24.9,32.7-27.2
		c-0.6,2-0.6,4.2,0,6.2C23.5,29.6,13.1,38.3,8.9,50.4z M21.6,66.6c-0.3,0.1-0.7,0.2-1,0.2c-0.9,0-1.8-0.4-2.4-1.1
		c-0.2-0.3-0.4-0.5-0.5-0.9c-0.6-1.6,0.2-3.3,1.8-3.9C31.6,56.5,40.2,46,42.3,33.6c0.2,0.1,0.4,0.1,0.6,0.2c0.4,0.5,0.8,1,1.1,1.7
		c1.4,2.8,1.5,6.8,1,9.6C40.5,54.9,32.2,62.8,21.6,66.6z M47.1,39.5c-0.2-1.7-0.6-3.5-1.3-4.9c-0.1-0.2-0.2-0.4-0.3-0.6
		c1,0,2-0.2,2.9-0.5C48.1,35.6,47.7,37.6,47.1,39.5z M62.8,21.7c-2.2,2.2-5.5,3.3-7.8,3.8c0-0.1,0-0.2,0-0.3c0.2-2-0.2-4-1.1-5.7
		c7.4-1.7,11.8-7.1,11.8-7.1c0.4,0.9,0.7,1.8,0.7,2.7C66.4,17,65.5,19.1,62.8,21.7z"/>
</g>
</svg>
