<?xml version="1.0" encoding="utf-8"?>
<!-- Generator: Adobe Illustrator 19.0.0, SVG Export Plug-In . SVG Version: 6.00 Build 0)  -->
<svg version="1.1" id="icons" xmlns="http://www.w3.org/2000/svg" xmlns:xlink="http://www.w3.org/1999/xlink" x="0px" y="0px"
	 viewBox="0 0 70.2 70.1" style="enable-background:new 0 0 70.2 70.1;" xml:space="preserve">
<style type="text/css">
	.st0{fill:#6AADA4;}
</style>
<path class="st0" d="M67.9,2.3C66.4,0.8,64.4,0,62.3,0c-2.1,0-4.1,0.8-5.6,2.3c-1.5,1.5-2.3,3.5-2.3,5.6c0,1.6,0.5,3.1,1.3,4.4
	l-5.6,5.6L44.1,12c-0.6-0.6-1.5-0.6-2.1,0c-0.6,0.6-0.6,1.5,0,2.1l2.3,2.3c-0.1,0.1-0.3,0.2-0.4,0.3L9.4,51.2
	c-1.2,1.2-1.2,3.1,0,4.2l1.9,1.9l-11,11c-0.4,0.4-0.4,1,0,1.4C0.5,70,0.7,70.1,1,70.1c0.3,0,0.5-0.1,0.7-0.3l11-11l1.9,1.9
	c0.6,0.6,1.3,0.9,2.1,0.9c0.8,0,1.6-0.3,2.1-0.9l34.5-34.5c0.1-0.1,0.2-0.2,0.3-0.4l2.3,2.3c0.3,0.3,0.7,0.4,1.1,0.4
	c0.4,0,0.8-0.1,1.1-0.4c0.6-0.6,0.6-1.5,0-2.1l-5.9-5.9l5.6-5.6c1.3,0.9,2.9,1.4,4.5,1.4c2.1,0,4.1-0.8,5.6-2.3
	C71,10.5,71,5.4,67.9,2.3z M16.7,58.6l-5.2-5.2l26.3-26.3l1.9,1.9l-20,20l-1-1c-0.4-0.4-1-0.4-1.4,0c-0.4,0.4-0.4,1,0,1.4l3.4,3.4
	c0.2,0.2,0.5,0.3,0.7,0.3c0.3,0,0.5-0.1,0.7-0.3c0.4-0.4,0.4-1,0-1.4l-1-1l20-20l1.9,1.9L16.7,58.6z M44.4,30.9l-2.6-2.6v0
	c0,0,0,0,0,0l-2.6-2.6l6.8-6.8l5.2,5.2L44.4,30.9z M65.8,11.4c-0.9,0.9-2.2,1.4-3.5,1.4c-1.3,0-2.6-0.5-3.5-1.5
	c-0.9-0.9-1.5-2.2-1.5-3.5c0-1.3,0.5-2.5,1.4-3.5C59.7,3.5,61,3,62.3,3c1.3,0,2.6,0.5,3.5,1.5C67.7,6.4,67.7,9.5,65.8,11.4z"/>
</svg>
