<?xml version="1.0" encoding="utf-8"?>
<!-- Generator: Adobe Illustrator 19.0.0, SVG Export Plug-In . SVG Version: 6.00 Build 0)  -->
<svg version="1.1" id="icons" xmlns="http://www.w3.org/2000/svg" xmlns:xlink="http://www.w3.org/1999/xlink" x="0px" y="0px"
	 viewBox="0 0 70.7 49" style="enable-background:new 0 0 70.7 49;" xml:space="preserve">
<style type="text/css">
	.st0{fill:#6AADA4;}
</style>
<g>
	<path class="st0" d="M45.7,0c-1.5,0-3.1,0.2-5.1,0.8c-2.2,0.6-3.6,0.8-5.2,0.8c-1.6,0-3.1-0.2-5.2-0.8C28.3,0.2,26.6,0,25.2,0
		c-2.7,0-4.8,0.8-6.3,2.5c-2.3,2.5-3,7-2.3,13.5c3.2,29.6,8.5,33,12.2,33c1.5,0,2.9-0.6,3.7-1.6c1-1.2,1.3-2.8,0.9-4.8
		c-1.2-6-1.3-13.3,0.6-15.6c0.4-0.5,0.9-0.7,1.5-0.7c0.6,0,1.1,0.2,1.5,0.7c1.9,2.3,1.7,9.6,0.6,15.6c-0.4,2-0.1,3.6,0.9,4.8
		c0.9,1,2.2,1.6,3.7,1.6c3.7,0,9-3.4,12.2-33C55,9.5,54.2,5,52,2.5C50.5,0.8,48.4,0,45.7,0z M51.3,15.7C48.2,43.8,43.5,46,42.1,46
		c-0.2,0-1,0-1.4-0.6c-0.5-0.6-0.4-1.6-0.3-2.3c0.4-2.2,2.4-13.7-1.2-18.1c-1-1.2-2.3-1.8-3.8-1.8c-1.5,0-2.8,0.6-3.8,1.8
		C28,29.5,30,40.9,30.5,43.1c0.1,0.7,0.2,1.8-0.3,2.3C29.8,46,29,46,28.8,46c-1.4,0-6.2-2.2-9.2-30.3c-0.6-5.6-0.1-9.4,1.6-11.2
		c1.5-1.7,4.2-1.9,8.3-0.8c2.4,0.6,4.1,0.9,6,0.9c1.8,0,3.6-0.3,6-0.9c4.1-1.1,6.8-0.8,8.3,0.8C51.4,6.3,51.9,10.1,51.3,15.7z"/>
	<path class="st0" d="M11.4,19.6c0-0.6-0.4-1-1-1H1c-0.6,0-1,0.4-1,1s0.4,1,1,1h9.4C10.9,20.6,11.4,20.1,11.4,19.6z"/>
	<path class="st0" d="M11.6,11.6L4.4,9C3.9,8.8,3.3,9,3.1,9.5c-0.2,0.5,0.1,1.1,0.6,1.3l7.2,2.6c0.1,0,0.2,0.1,0.3,0.1
		c0.4,0,0.8-0.3,0.9-0.7C12.4,12.4,12.1,11.8,11.6,11.6z"/>
	<path class="st0" d="M10.9,25.7l-6.7,2.5c-0.5,0.2-0.8,0.8-0.6,1.3c0.1,0.4,0.5,0.7,0.9,0.7c0.1,0,0.2,0,0.3-0.1l6.7-2.5
		c0.5-0.2,0.8-0.8,0.6-1.3C12,25.8,11.4,25.5,10.9,25.7z"/>
	<path class="st0" d="M69.7,18.6h-9.4c-0.6,0-1,0.4-1,1s0.4,1,1,1h9.4c0.6,0,1-0.4,1-1S70.3,18.6,69.7,18.6z"/>
	<path class="st0" d="M59.5,13.5c0.1,0,0.2,0,0.3-0.1l7.2-2.6c0.5-0.2,0.8-0.8,0.6-1.3C67.4,9,66.8,8.8,66.3,9l-7.2,2.6
		c-0.5,0.2-0.8,0.8-0.6,1.3C58.7,13.3,59.1,13.5,59.5,13.5z"/>
	<path class="st0" d="M66.6,28.2l-6.7-2.5c-0.5-0.2-1.1,0.1-1.3,0.6c-0.2,0.5,0.1,1.1,0.6,1.3l6.7,2.5c0.1,0,0.2,0.1,0.3,0.1
		c0.4,0,0.8-0.3,0.9-0.7C67.3,29,67.1,28.4,66.6,28.2z"/>
</g>
</svg>
