<?xml version="1.0" encoding="utf-8"?>
<!-- Generator: Adobe Illustrator 19.0.0, SVG Export Plug-In . SVG Version: 6.00 Build 0)  -->
<svg version="1.1" id="icons" xmlns="http://www.w3.org/2000/svg" xmlns:xlink="http://www.w3.org/1999/xlink" x="0px" y="0px"
	 viewBox="0 0 59.2 70.2" style="enable-background:new 0 0 59.2 70.2;" xml:space="preserve">
<style type="text/css">
	.st0{fill:#6AADA4;}
</style>
<path class="st0" d="M38.6,55.5c9.6,0,20.6-18.9,20.6-35.4c0-7.4-2.4-13.4-6.9-16.9c-4-3.1-9.3-4-15.1-2.6c-3.1,0.8-5.3,1.1-7.6,1.1
	c-2.3,0-4.4-0.3-7.6-1.1C16.2-0.8,10.9,0.1,6.9,3.2C2.4,6.7,0,12.7,0,20.1c0,16.3,10.7,34.9,20.2,35.4c-0.4,0.2-0.6,0.6-0.6,1
	c0.1,0.5,0.5,0.9,1,0.9c0,0,0.1,0,0.1,0l0.4-0.1l0.3,4.9l-0.8,0.1c-0.5,0.1-0.9,0.6-0.9,1.1c0.1,0.5,0.5,0.9,1,0.9c0,0,0.1,0,0.1,0
	l0.7-0.1l0.2,3.2c0.1,1.6,1.4,2.8,3,2.8h9.4c1.6,0,2.9-1.2,3-2.8l0.3-5.3l0.6-0.1c0.5-0.1,0.9-0.6,0.9-1.1c-0.1-0.5-0.6-0.9-1.1-0.9
	l-0.2,0l0.3-4.7C38.1,55.5,38.3,55.5,38.6,55.5z M33.8,62.6c0,0,0.1,0,0.1,0l0.5-0.1l-0.3,4.7h-9.4l-0.2-3.4l5.2-0.7
	c0.5-0.1,0.9-0.6,0.9-1.1c-0.1-0.5-0.6-0.9-1.1-0.9l-5,0.7l-0.3-4.9l5.6-0.8c0.5-0.1,0.9-0.6,0.9-1.1c-0.1-0.5-0.6-0.9-1.1-0.9
	L24,54.9L23.7,50l6-0.8c0.5-0.1,0.9-0.6,0.9-1.1c-0.1-0.5-0.6-0.9-1.1-0.9L23.6,48l-0.3-4.9l6.4-0.9c0.5-0.1,0.9-0.6,0.9-1.1
	c-0.1-0.5-0.6-0.9-1.1-0.9l-6.3,0.9l-0.4-6.7h13.4l-0.3,5l-2.4,0.3c-0.5,0.1-0.9,0.6-0.9,1.1c0.1,0.5,0.5,0.9,1,0.9c0,0,0.1,0,0.1,0
	l2-0.3l-0.3,5l-1.8,0.2c-0.5,0.1-0.9,0.6-0.9,1.1c0.1,0.5,0.5,0.9,1,0.9c0,0,0.1,0,0.1,0l1.4-0.2l-0.3,5l-1.3,0.2
	c-0.5,0.1-0.9,0.6-0.9,1.1c0.1,0.5,0.5,0.9,1,0.9c0,0,0.1,0,0.1,0l0.9-0.1l-0.3,5l-0.9,0.1c-0.5,0.1-0.9,0.6-0.9,1.1
	C32.9,62.2,33.3,62.6,33.8,62.6z M8.7,5.6c3.3-2.6,7.6-3.3,12.6-2c3.3,0.8,5.7,1.2,8.3,1.2c2.5,0,4.9-0.3,8.3-1.2
	c5-1.2,9.3-0.5,12.6,2c3.7,2.9,5.7,8.1,5.7,14.5c0,15.7-10.3,32.4-17.6,32.4c-0.2,0-0.4,0-0.5,0.1l0.3-4.6L39,48
	c0.5-0.1,0.9-0.6,0.9-1.1c-0.1-0.5-0.6-0.9-1.1-0.9l-0.3,0l0.3-5l0.6-0.1c0.5-0.1,0.9-0.6,0.9-1.1c-0.1-0.5-0.6-0.9-1.1-0.9l-0.2,0
	l0.3-5.5c0-0.6-0.1-1.2-0.4-1.7l-2.1-3.4c-0.5-0.9-1.5-1.4-2.6-1.4h-9.4c-1,0-2,0.5-2.6,1.4l-2.1,3.4c-0.3,0.5-0.5,1.1-0.4,1.7
	l0.5,8l-0.3,0c-0.5,0.1-0.9,0.6-0.9,1.1c0.1,0.5,0.5,0.9,1,0.9c0,0,0.1,0,0.1,0l0.1,0l0.3,4.9l-0.4,0.1c-0.5,0.1-0.9,0.6-0.9,1.1
	c0.1,0.5,0.5,0.9,1,0.9c0,0,0.1,0,0.1,0l0.2,0l0.1,2.1c-0.1,0-0.2,0-0.3,0C13.3,52.5,3,35.8,3,20.1C3,13.7,5,8.5,8.7,5.6z
	 M24.8,29.9h9.4l1.5,2.5H23.3L24.8,29.9z"/>
</svg>
